<svg
  width="32"
  height="32"
  viewBox="0 0 32 32"
  fill="none"
  xmlns="http://www.w3.org/2000/svg"
>
  <!-- Black filled circle background -->
  <circle
    cx="16"
    cy="16"
    r="15"
    fill="#000000"
  />
  
  <!-- Clipping mask for grid -->
  <defs>
    <clipPath id="circleClip">
      <circle cx="16" cy="16" r="15" />
    </clipPath>
  </defs>
  
  <!-- Isometric grid lines - clipped to circle -->
  <g clipPath="url(#circleClip)">
    <!-- Diagonal lines going up-right -->
    <path d="M4 8 L28 32" stroke="#ffffff" stroke-width="1" opacity="0.25" />
    <path d="M4 12 L28 36" stroke="#ffffff" stroke-width="1" opacity="0.25" />
    <path d="M4 4 L28 28" stroke="#ffffff" stroke-width="1" opacity="0.25" />
    <path d="M0 12 L24 36" stroke="#ffffff" stroke-width="1" opacity="0.25" />
    <path d="M8 0 L32 24" stroke="#ffffff" stroke-width="1" opacity="0.25" />
    
    <!-- Diagonal lines going up-left -->
    <path d="M28 8 L4 32" stroke="#ffffff" stroke-width="1" opacity="0.25" />
    <path d="M28 12 L4 36" stroke="#ffffff" stroke-width="1" opacity="0.25" />
    <path d="M28 4 L4 28" stroke="#ffffff" stroke-width="1" opacity="0.25" />
    <path d="M32 12 L8 36" stroke="#ffffff" stroke-width="1" opacity="0.25" />
    <path d="M24 0 L0 24" stroke="#ffffff" stroke-width="1" opacity="0.25" />
    
    <!-- Horizontal lines -->
    <path d="M0 12 L32 12" stroke="#ffffff" stroke-width="1" opacity="0.18" />
    <path d="M0 16 L32 16" stroke="#ffffff" stroke-width="1" opacity="0.18" />
    <path d="M0 20 L32 20" stroke="#ffffff" stroke-width="1" opacity="0.18" />
    <path d="M0 8 L32 8" stroke="#ffffff" stroke-width="1" opacity="0.18" />
    <path d="M0 24 L32 24" stroke="#ffffff" stroke-width="1" opacity="0.18" />
  </g>
  
  <!-- White "NS" text in center - on top of grid -->
  <text
    x="16"
    y="21"
    text-anchor="middle"
    fill="#ffffff"
    font-size="12"
    font-family="system-ui, -apple-system, sans-serif"
    font-weight="600"
  >
    NS
  </text>
</svg>